<svg xmlns="http://www.w3.org/2000/svg" xmlns:xlink="http://www.w3.org/1999/xlink" id="Layer_1" x="0" y="0" enable-background="new 0 0 304.7 154.3" version="1.1" viewBox="0 0 304.7 154.3" xml:space="preserve"><path fill="#C4BEB0" d="M304.7,154.3c-2.4-4-4.5-9.1-5.5-16.6c-3.3-24-25.7-54.4-64-49.6c0,0,2.8-37.3-36.7-51.5	c-28.3-10.1-41-24.8-45.1-33.4V0c0,0-0.4,0.6-0.9,1.7c-0.5-1.1-0.9-1.7-0.9-1.7l0,3.3c-4,8.6-17,23.3-45.3,33.4	C66.8,50.8,69.5,88.1,69.5,88.1c-38.2-4.8-60.7,25.5-64,49.5c-1,7.5-3.1,12.7-5.5,16.7H304.7z" opacity=".25"/></svg>